<?xml version="1.0" encoding="utf-8"?>
<!-- Generator: Adobe Illustrator 18.1.1, SVG Export Plug-In . SVG Version: 6.00 Build 0)  -->
<svg version="1.1" id="Layer_1" xmlns="http://www.w3.org/2000/svg" xmlns:xlink="http://www.w3.org/1999/xlink" x="0px" y="0px"
	 viewBox="-239 239.9 189.2 51.5" enable-background="new -239 239.9 189.2 51.5" xml:space="preserve">
<g>
	<path fill="none" d="M-60.1,255.5c-0.1-0.9-0.5-1.5-1-1.4c-0.6,0-1.7,1.6-1.9,4.8C-60.5,258.3-60,256.9-60.1,255.5z"/>
	<path fill="none" d="M-88.7,259.2c0,0-0.9-0.5-2.1,0.2c-0.8,0.5-1.2,1.2-1.5,2.2c-0.4,1.3-0.2,3.3,1.4,3.8c2,0.6,3-1.1,3.1-1.6
		c0,0,0-0.1,0-0.1c0.1-1.1,0.2-2.2,0-3C-87.9,260-88.2,259.4-88.7,259.2z"/>
	<polygon fill="#F2F2F2" points="-239,266.8 -239,284.3 -218,287.2 -218,266.9 	"/>
	<polygon fill="#F2F2F2" points="-215.5,287.5 -187.7,291.4 -187.7,267.1 -215.5,267.1 	"/>
	<polygon fill="#F2F2F2" points="-187.7,239.9 -215.5,244 -215.5,264.6 -187.7,264.3 	"/>
	<polygon fill="#F2F2F2" points="-239,247.2 -239,264.7 -218,264.6 -218,244.4 	"/>
	<path fill="#F2F2F2" d="M-50.1,258.1c-0.4-0.5-1.3,0-1.3,0c-2.4,4.1-6.2,6.9-9.3,7.1c-1.8,0.1-2.2,0-2.3-2c6.1-1.7,8.1-5.9,7.9-9.6
		c-0.2-3.2-2-4.6-5.1-4.4c-4.2,0.3-9.3,7.2-9.2,13.8c-1.2,1.9-2.4,3.2-3.2,3.2c-1,0.1-1-1.2-1.1-1.7l-0.1-2.8
		c-0.1-2.8,1.5-19.1,1.5-19.1c-0.1-2.3-0.9-3-3.2-2.6c-0.7,0.1-2.2,1.7-2.7,4.2c-0.6,3.2-0.7,8.3-0.8,12.8c-0.8,1.5-1.7,2.8-2.3,3.4
		c-0.3,0.3-0.6,0.6-0.9,0.8c0-0.8,0.1-1.6,0.2-2c0.1-0.5,0.1-1,0.1-1.4c0-1-0.1-1.9-0.4-2.6c-0.3-0.8-0.7-1.4-1.3-1.9
		c-0.6-0.5-1.2-0.9-2-1.2c-0.8-0.3-1.7-0.4-2.7-0.4c-0.7,0-1.4,0.1-2.1,0.3s-1.4,0.5-2,0.8c-0.6,0.3-1.3,0.8-1.9,1.2
		c-0.6,0.5-1.1,1-1.6,1.6c-0.5,0.6-1,1.2-1.4,1.9c-0.4,0.7-0.8,1.4-1,2.1c-0.3,0.7-0.5,1.5-0.7,2.3s-0.2,1.6-0.2,2.4
		c0,0,0,0.1,0,0.1c-1.4,2.1-2.6,3.4-3.2,3.5c-0.4,0.1-0.6-0.1-0.7-0.6c-0.2-1.1,0.6-4.6,1.1-6.6c0.6-2.3,0.6-3.9,0.4-5.1
		c-0.3-1.7-1.6-2.9-3.6-2.5c-2,0.4-4.8,3-7.1,9.2c0.8-2.4,1-5.7,0.8-6.8c-0.2-1.4-0.8-1.8-2.3-1.5c-1.6,0.3-3.2,2.1-4.3,4.1
		c0,0,0,0-0.1,0c-2.4,4.4-4.7,11.1-5.7,11.2c-0.4,0-0.6-0.1-0.7-0.6c-0.1-0.8,1.4-5.2,2-7.9c0.5-1.9,0.6-2.8,0.5-3.6
		c-0.2-1.9-1.2-2.4-3.7-2.1c-0.7,0.1-1.3,0.5-1.8,1.1c-1.4,1.9-1.5,4.8-2.1,9.1c0,0-1.3,5.5-3.1,4.9c0,0-2.2-1.1,0.1-7.3
		c0,0,1.6-4,1.4-5.6c-0.1-1.3-0.7-2.1-2.2-1.9c-3.1,0.4-4.8,2.5-5.6,7.7c-1,5.7,0.1,9.7,0.1,9.7c0.4,2.2,2.1,4.2,3.5,4.1
		c2.5,0,4.6-2.2,5.7-6.2c-0.2,1-0.1,1.4,0,2c0.2,2.4,1.4,3.6,3.3,3.4c1.9-0.2,4.1-3.2,6.1-5.8c0.7-1,1.5-2.3,2.2-3.6
		c-0.2,1.5-0.1,2.9,0.1,4.1c0.5,2.7,2.3,4.7,4.8,4.2c1-0.2,1.6-0.4,1.7-1c0.5-3.4-0.4-7.2,0.1-8.5c1-2.9,2.6-3.7,3-3.7
		c0.4-0.1,0.6,0.1,0.6,0.4c0.1,1-1.3,5.9-0.8,8.8c0.4,2.5,1.5,3.4,4.1,3c2-0.4,4.6-2.8,6.6-5.4c0.2,0.4,0.5,0.8,0.8,1.1
		c0.4,0.4,0.8,0.8,1.3,1.1c0.5,0.3,1,0.6,1.6,0.7c0.6,0.1,1.2,0.2,1.9,0.2c0.5,0,1-0.1,1.4-0.2c0.5-0.1,0.9-0.3,1.3-0.5
		c0.2-0.1,0.7-0.4,1.2-0.6l-0.1,1.6c-0.1,1.5-0.2,2.2-0.2,2.5c0,0,0,0.1,0,0.2c-0.1,1.3-0.7,7.6-3.6,8.6c-3.5,1.2-10.6,0.5-21.8,0.2
		c-11.1-0.3-17.2,0.6-20.9,1c-2.8,0.3-9.8,1.4-9.8,5.2c0,1.2,1.5,1.4,1.5,1.4s1.7-0.1,1.7-1.2c0-2.1,18.8-2.4,24.3-2.4
		s20.7,1.1,20.7,1.1s1.5,0,6.1,0.1c0,0,0.8,0.1,1.9-0.1c1.1-0.1,1.7-0.5,1.7-0.5c2.5-1.4,3.2-9,3.6-14.3c0.1-0.9,0.1-1.9,0.1-1.9
		l0.3-3.4l0.3-1.9c1.2-0.8,2.6-1.8,3.9-3.3c0,0.6,0,1.1,0,1.4l0.1,3.8c0.1,2.4,1.2,3,3.8,2.8c2-0.1,4.3-2,6.3-4.4
		c1,2.4,3,3.6,6.1,3.4c5.9-0.3,12.9-8,12.7-11.3C-49.7,259.5-49.7,258.6-50.1,258.1z M-61.1,254.1c0.5,0,0.9,0.5,1,1.4
		c0.1,1.4-0.4,2.8-2.9,3.4C-62.8,255.7-61.7,254.1-61.1,254.1z M-87.8,263.7c0,0,0,0.1,0,0.1c-0.1,0.5-1,2.2-3.1,1.6
		c-1.5-0.5-1.7-2.5-1.4-3.8c0.3-1,0.6-1.7,1.5-2.2c1.3-0.7,2.1-0.2,2.1-0.2c0.4,0.2,0.8,0.8,0.9,1.5
		C-87.6,261.4-87.7,262.6-87.8,263.7z"/>
	<path fill="#F2F2F2" d="M-141.3,246.8c-2-1.2-4.3,0.1-4.9,1.6c-0.8,2.3-3.5,17.1-4.6,19.7c-0.4,1.1-0.6,1.6-0.7,1.9l-0.7-2.7
		c-0.3-1.3-0.8-2.6-1.1-3.9c-0.3-1.3-0.6-2.6-0.9-3.9c-0.3-1.3-0.6-2.5-0.9-3.6c-0.4-1.5-0.7-2.9-1.1-4c-0.4-1.1-0.8-2-1.2-2.7
		c-0.4-0.7-0.9-1.2-1.4-1.5c-0.5-0.3-1-0.4-1.6-0.4c-0.3,0-1,0.3-1.3,0.4c-0.3,0.1-0.7,0.5-0.9,0.7c0,0-0.4,0.5-0.5,1.6
		c-0.1,0.6,0.1,2,0.3,2.3c0.3,1.1,0.3,1.3,0.6,2.1c0.3,0.8,0.5,1.3,0.8,2.4s0.8,2.3,1.2,3.7c0.6,2.1,1.2,4.1,1.7,5.7
		c0.5,1.7,1,3.2,1.4,4.5c0.4,1.3,0.8,2.4,1.1,3.3c0.3,0.9,0.6,1.7,0.9,2.3c0.3,0.6,0.5,1.1,0.8,1.5c0.2,0.4,0.5,0.7,0.7,0.9
		c0.2,0.2,0.5,0.3,0.7,0.4c0.2,0.1,0.5,0.1,0.8,0c0.4,0,1.2-0.1,2.1-0.7c0.9-0.6,2.2-3.1,2.2-3.1l0.8-1.9c0.9-2.1,4.2-11.3,6.4-21.4
		C-139.9,249.6-140.1,247.5-141.3,246.8z"/>
</g>
</svg>
